<?xml version="1.0" encoding="UTF-8"?>
<svg width="100px" height="100px" viewBox="0 0 100 100" version="1.1" xmlns="http://www.w3.org/2000/svg" xmlns:xlink="http://www.w3.org/1999/xlink">
    <g id="设计图2022" stroke="none" stroke-width="1" fill="none" fill-rule="evenodd">
        <g id="逻辑3.0前台" transform="translate(-343.000000, -132.000000)">
            <g id="编组-24" transform="translate(343.000000, 132.500000)">
                <path d="M99.998772,0.000877859431 C99.7290542,54.9989155 55.0614197,99.5 0,99.5 L0.5,99.496 L0.5,0 Z" id="形状结合" fill="#E6F7FF"></path>
                <g id="desktop" transform="translate(26.000000, 20.500000)" fill="#1890FF" fill-rule="nonzero">
                    <rect id="矩形" opacity="0" x="0" y="0" width="32" height="32"></rect>
                    <path d="M29,4.375 L3,4.375 C2.446875,4.375 2,4.821875 2,5.375 L2,20.875 C2,21.428125 2.446875,21.875 3,21.875 L14.875,21.875 L14.875,25.375 L9.5,25.375 C9.225,25.375 9,25.6 9,25.875 L9,27.375 C9,27.5125 9.1125,27.625 9.25,27.625 L22.75,27.625 C22.8875,27.625 23,27.5125 23,27.375 L23,25.875 C23,25.6 22.775,25.375 22.5,25.375 L17.125,25.375 L17.125,21.875 L29,21.875 C29.553125,21.875 30,21.428125 30,20.875 L30,5.375 C30,4.821875 29.553125,4.375 29,4.375 Z M27.75,19.625 L4.25,19.625 L4.25,6.625 L27.75,6.625 L27.75,19.625 Z" id="形状"></path>
                </g>
            </g>
        </g>
    </g>
</svg>