<?xml version="1.0" encoding="UTF-8"?>
<svg width="100px" height="100px" viewBox="0 0 100 100" version="1.1" xmlns="http://www.w3.org/2000/svg" xmlns:xlink="http://www.w3.org/1999/xlink">
    <g id="设计图2022" stroke="none" stroke-width="1" fill="none" fill-rule="evenodd">
        <g id="逻辑3.0后台" transform="translate(-343.000000, -132.000000)">
            <g id="后台" transform="translate(343.000000, 132.500000)">
                <path d="M99.998772,0.000877859431 C99.7290542,54.9989155 55.0614197,99.5 0,99.5 L0.5,99.496 L0.5,0 Z" id="形状结合" fill="#F0F5FF"></path>
                <g id="sever" transform="translate(26.000000, 20.500000)" fill="#2F54EB" fill-rule="nonzero">
                    <rect id="矩形" opacity="0" x="0" y="0" width="32" height="32"></rect>
                    <path d="M26,2 L6,2 C5.446875,2 5,2.446875 5,3 L5,29 C5,29.553125 5.446875,30 6,30 L26,30 C26.553125,30 27,29.553125 27,29 L27,3 C27,2.446875 26.553125,2 26,2 Z M7.25,4.25 L24.75,4.25 L24.75,10.75 L7.25,10.75 L7.25,4.25 Z M24.75,19.25 L7.25,19.25 L7.25,12.75 L24.75,12.75 L24.75,19.25 Z M24.75,27.75 L7.25,27.75 L7.25,21.25 L24.75,21.25 L24.75,27.75 Z M15.5,6.5 L9.75,6.5 C9.6125,6.5 9.5,6.6125 9.5,6.75 L9.5,8.25 C9.5,8.3875 9.6125,8.5 9.75,8.5 L15.5,8.5 C15.6375,8.5 15.75,8.3875 15.75,8.25 L15.75,6.75 C15.75,6.6125 15.6375,6.5 15.5,6.5 Z M9.75,17 L15.5,17 C15.6375,17 15.75,16.8875 15.75,16.75 L15.75,15.25 C15.75,15.1125 15.6375,15 15.5,15 L9.75,15 C9.6125,15 9.5,15.1125 9.5,15.25 L9.5,16.75 C9.5,16.8875 9.6125,17 9.75,17 Z M20,24.625 C20,25.3153559 20.5596441,25.875 21.25,25.875 C21.9403559,25.875 22.5,25.3153559 22.5,24.625 C22.5,23.9346441 21.9403559,23.375 21.25,23.375 C20.5596441,23.375 20,23.9346441 20,24.625 L20,24.625 Z" id="形状"></path>
                </g>
            </g>
        </g>
    </g>
</svg>