<?xml version="1.0" encoding="UTF-8"?>
<svg width="100px" height="100px" viewBox="0 0 100 100" version="1.1" xmlns="http://www.w3.org/2000/svg" xmlns:xlink="http://www.w3.org/1999/xlink">
    <g id="设计图2022" stroke="none" stroke-width="1" fill="none" fill-rule="evenodd">
        <g id="逻辑3.0前台" transform="translate(-343.000000, -132.000000)">
            <g id="后台及前台" transform="translate(343.000000, 132.500000)">
                <path d="M99.998772,0.000877859431 C99.7290542,54.9989155 55.0614197,99.5 0,99.5 L0.5,99.496 L0.5,0 Z" id="形状结合" fill="#E6FFFB"></path>
                <g id="编组-30" transform="translate(26.000000, 20.000000)" fill-rule="nonzero">
                    <rect id="矩形" fill="#000000" opacity="0" x="0" y="0" width="32" height="32"></rect>
                    <g id="编组-29" transform="translate(0.000000, 2.000000)">
                        <g id="sever" transform="translate(11.375000, 0.000000)" fill="#36CFC9">
                            <path d="M18.375,0 L0.875,0 C0.391015625,0 0,0.391015625 0,0.875 L0,23.625 C0,24.1089844 0.391015625,24.5 0.875,24.5 L18.375,24.5 C18.8589844,24.5 19.25,24.1089844 19.25,23.625 L19.25,0.875 C19.25,0.391015625 18.8589844,0 18.375,0 Z M1.96875,1.96875 L17.28125,1.96875 L17.28125,7.65625 L1.96875,7.65625 L1.96875,1.96875 Z M17.28125,15.09375 L1.96875,15.09375 L1.96875,9.40625 L17.28125,9.40625 L17.28125,15.09375 Z M17.28125,22.53125 L1.96875,22.53125 L1.96875,16.84375 L17.28125,16.84375 L17.28125,22.53125 Z M9.1875,3.9375 L4.15625,3.9375 C4.0359375,3.9375 3.9375,4.0359375 3.9375,4.15625 L3.9375,5.46875 C3.9375,5.5890625 4.0359375,5.6875 4.15625,5.6875 L9.1875,5.6875 C9.3078125,5.6875 9.40625,5.5890625 9.40625,5.46875 L9.40625,4.15625 C9.40625,4.0359375 9.3078125,3.9375 9.1875,3.9375 Z M4.15625,13.125 L9.1875,13.125 C9.3078125,13.125 9.40625,13.0265625 9.40625,12.90625 L9.40625,11.59375 C9.40625,11.4734375 9.3078125,11.375 9.1875,11.375 L4.15625,11.375 C4.0359375,11.375 3.9375,11.4734375 3.9375,11.59375 L3.9375,12.90625 C3.9375,13.0265625 4.0359375,13.125 4.15625,13.125 Z M13.125,19.796875 C13.125,20.4009364 13.6146886,20.890625 14.21875,20.890625 C14.8228114,20.890625 15.3125,20.4009364 15.3125,19.796875 C15.3125,19.1928136 14.8228114,18.703125 14.21875,18.703125 C13.6146886,18.703125 13.125,19.1928136 13.125,19.796875 L13.125,19.796875 Z" id="形状"></path>
                        </g>
                        <g id="desktop" transform="translate(0.000000, 4.250000)">
                            <rect id="矩形" fill="#000000" opacity="0" x="0" y="0" width="24" height="24"></rect>
                            <path d="M21.75,2.78125 C22.0957031,2.78125 22.4080859,2.92109626 22.6341198,3.1471302 C22.8601537,3.37316414 23,3.68554687 23,4.03125 L23,4.03125 L23,15.65625 C23,16.0019531 22.8601537,16.3143359 22.6341198,16.5403698 C22.4080859,16.7664037 22.0957031,16.90625 21.75,16.90625 L21.75,16.90625 L13.34375,16.90625 L13.34375,18.53125 L17.2653882,18.53125 L17.8875111,21.0197415 L6.50498751,21.2266965 L6.18016503,18.9529391 L10.65625,18.5719957 L10.65625,16.90625 L2.25,16.90625 C1.90429688,16.90625 1.59191414,16.7664037 1.3658802,16.5403698 C1.13984626,16.3143359 1,16.0019531 1,15.65625 L1,15.65625 L1,4.03125 C1,3.68554687 1.13984626,3.37316414 1.3658802,3.1471302 C1.59191414,2.92109626 1.90429688,2.78125 2.25,2.78125 L2.25,2.78125 Z" id="形状" stroke="#E6F7FF" fill="#36CFC9"></path>
                            <polygon id="路径" fill="#E6FFFB" points="20.8125 14.71875 3.1875 14.71875 3.1875 4.96875 20.8125 4.96875"></polygon>
                        </g>
                    </g>
                </g>
            </g>
        </g>
    </g>
</svg>